<?xml version="1.0" encoding="UTF-8" standalone="no"?>
<!-- Created with Inkscape (http://www.inkscape.org/) -->

<svg
   width="210mm"
   height="210mm"
   viewBox="0 0 210 210"
   version="1.1"
   id="svg5"
   inkscape:version="1.3.2 (091e20e, 2023-11-25, custom)"
   sodipodi:docname="mic.svg"
   inkscape:export-filename="favicon.png"
   inkscape:export-xdpi="96"
   inkscape:export-ydpi="96"
   xmlns:inkscape="http://www.inkscape.org/namespaces/inkscape"
   xmlns:sodipodi="http://sodipodi.sourceforge.net/DTD/sodipodi-0.dtd"
   xmlns="http://www.w3.org/2000/svg"
   xmlns:svg="http://www.w3.org/2000/svg">
  <sodipodi:namedview
     id="namedview7"
     pagecolor="#ffffff"
     bordercolor="#000000"
     borderopacity="1"
     inkscape:showpageshadow="false"
     inkscape:pageopacity="0.0"
     inkscape:pagecheckerboard="true"
     inkscape:deskcolor="#d1d1d1"
     inkscape:document-units="mm"
     showgrid="false"
     inkscape:zoom="0.71198899"
     inkscape:cx="346.91548"
     inkscape:cy="394.66902"
     inkscape:window-width="1920"
     inkscape:window-height="1017"
     inkscape:window-x="-8"
     inkscape:window-y="-8"
     inkscape:window-maximized="1"
     inkscape:current-layer="layer1" />
  <defs
     id="defs2" />
  <g
     inkscape:label="Background"
     inkscape:groupmode="layer"
     id="layer1">
    <g
       id="g1"
       transform="matrix(1.0404555,0,0,1.0404555,-4.2478249,-21.277938)">
      <path
         id="path1"
         style="fill:#000000;stroke-width:26.5605;paint-order:stroke markers fill;stroke:none"
         d="m 105,20.450599 c -18.453233,0 -33.909341,11.640007 -37.905873,27.255864 h 42.622363 v 5.094534 H 66.220145 c -0.08619,0.961979 -0.141308,1.931947 -0.140383,2.914241 v 10.003491 h 43.636728 v 5.094533 H 66.079762 v 12.917733 h 43.636728 v 5.094532 H 66.079762 v 24.752783 c 10e-7,19.47605 17.425137,35.26464 38.920238,35.26464 21.49509,0 38.92025,-15.78859 38.92025,-35.26464 V 55.715238 C 143.92025,36.239193 126.4951,20.450599 105,20.450599 Z" />
      <g
         id="path3"
         style="fill:#000000;stroke:#000000;stroke-opacity:1"
         transform="matrix(0.83149917,0,0,0.83149917,17.692761,20.450599)">
        <path
           id="path5"
           style="color:#000000;fill:#000000;stroke:none;stroke-width:10;stroke-linecap:square;stroke-dasharray:none;stroke-opacity:1;paint-order:stroke markers fill"
           d="m 37.027714,101.05946 c -7.200842,0 -13.038487,5.59646 -13.038481,12.50002 -1.5e-4,36.9664 28.6602,67.61552 65.959799,74.22337 v 49.95303 H 120.049 v -49.95251 c 37.30054,-6.60713 65.96148,-37.25684 65.96135,-74.22389 1e-5,-6.90357 -5.83712,-12.50002 -13.03796,-12.50002 -7.20085,0 -13.03849,5.59646 -13.03848,12.50002 1e-4,27.84643 -24.21263,50.5603 -54.93412,50.56022 -30.721479,8e-5 -54.933708,-22.7138 -54.933595,-50.56022 6e-6,-6.90356 -5.837639,-12.50002 -13.038481,-12.50002 z"
           sodipodi:nodetypes="scccccssccss" />
      </g>
    </g>
  </g>
  <g
     inkscape:groupmode="layer"
     id="layer2"
     inkscape:label="Layer1" />
</svg>
